# xmcd
#
# Track frame offsets:
#	150
#	19766
#	36836
#	55729
#	71225
#	87592
#	103661
#	120530
#	140849
#	167668
#	187847
#
# Disc length: 2654 seconds
#
# Revision: 1
# Processed by: cddbd v1.5.2PL0 Copyright (c) Steve Scherf et al.
# Submitted via: audiograbber 1.83.01
#
DISCID=980a5c0b
DTITLE=Harry Bodine - Which Way Home
DYEAR=2006
DGENRE=Blues
TTITLE0=Which Way Home
TTITLE1=Drivin' Up Thru Memphis
TTITLE2=Twenty Four Hours
TTITLE3=Time On My Hands
TTITLE4=What Would I Do
TTITLE5=Enough Hard Times
TTITLE6=Shufflin' Shoes
TTITLE7=Can't Live Without It
TTITLE8=Troubled Mind
TTITLE9=Hip Street
TTITLE10=Peace Tree Blues
EXTD=
EXTT0=
EXTT1=
EXTT2=
EXTT3=
EXTT4=
EXTT5=
EXTT6=
EXTT7=
EXTT8=
EXTT9=
EXTT10=
PLAYORDER=
